HIERARCHY
ROOT Hips
{
	OFFSET -0.001795 -0.223333 0.028219
	CHANNELS 6 Xposition Yposition Zposition Zrotation Yrotation Xrotation 
	JOINT LeftUpLeg
	{
		OFFSET 0.069520 -0.091406 -0.006815
		CHANNELS 3 Zrotation Yrotation Xrotation
		JOINT LeftLeg
		{
			OFFSET 0.034277 -0.375199 -0.004496
			CHANNELS 3 Zrotation Yrotation Xrotation
			JOINT LeftFoot
			{
				OFFSET -0.013596 -0.397961 -0.043693
				CHANNELS 3 Zrotation Yrotation Xrotation
				JOINT LeftToe
				{
					OFFSET 0.026358 -0.055791 0.119288
					CHANNELS 3 Zrotation Yrotation Xrotation
					End Site
					{
						OFFSET 0.000000 0.000000 0.000000
					}
				}
			}
		}
	}
	JOINT RightUpLeg
	{
		OFFSET -0.067670 -0.090522 -0.004320
		CHANNELS 3 Zrotation Yrotation Xrotation
		JOINT RightLeg
		{
			OFFSET -0.038290 -0.382569 -0.008850
			CHANNELS 3 Zrotation Yrotation Xrotation
			JOINT RightFoot
			{
				OFFSET 0.015774 -0.398415 -0.042312
				CHANNELS 3 Zrotation Yrotation Xrotation
				JOINT RightToe
				{
					OFFSET -0.025372 -0.048144 0.123348
					CHANNELS 3 Zrotation Yrotation Xrotation
					End Site
					{
						OFFSET 0.000000 0.000000 0.000000
					}
				}
			}
		}
	}
	JOINT Spine
	{
		OFFSET -0.002533 0.108963 -0.026696
		CHANNELS 3 Zrotation Yrotation Xrotation
		JOINT Spine1
		{
			OFFSET 0.005487 0.135180 0.001092
			CHANNELS 3 Zrotation Yrotation Xrotation
			JOINT Spine2
			{
				OFFSET 0.001457 0.052922 0.025425
				CHANNELS 3 Zrotation Yrotation Xrotation
				JOINT Neck
				{
					OFFSET -0.002778 0.213870 -0.042857
					CHANNELS 3 Zrotation Yrotation Xrotation
					JOINT Head
					{
						OFFSET 0.005152 0.064970 0.051349
						CHANNELS 3 Zrotation Yrotation Xrotation
						End Site
						{
							OFFSET 0.000000 0.000000 0.000000
						}
					}
				}
				JOINT LeftShoulder
				{
					OFFSET 0.078845 0.121749 -0.034090
					CHANNELS 3 Zrotation Yrotation Xrotation
					JOINT LeftArm
					{
						OFFSET 0.090977 0.030469 -0.008868
						CHANNELS 3 Zrotation Yrotation Xrotation
						JOINT LeftForeArm
						{
							OFFSET 0.259612 -0.012772 -0.027456
							CHANNELS 3 Zrotation Yrotation Xrotation
							JOINT LeftHand
							{
								OFFSET 0.249234 0.008986 -0.001171
								CHANNELS 3 Zrotation Yrotation Xrotation
								End Site
								{
									OFFSET 0.000000 0.000000 0.000000
								}
							}
						}
					}
				}
				JOINT RightShoulder
				{
					OFFSET -0.081759 0.118833 -0.038615
					CHANNELS 3 Zrotation Yrotation Xrotation
					JOINT RightArm
					{
						OFFSET -0.096012 0.032551 -0.009143
						CHANNELS 3 Zrotation Yrotation Xrotation
						JOINT RightForeArm
						{
							OFFSET -0.253742 -0.013329 -0.021401
							CHANNELS 3 Zrotation Yrotation Xrotation
							JOINT RightHand
							{
								OFFSET -0.255298 0.007772 -0.005559
								CHANNELS 3 Zrotation Yrotation Xrotation
								End Site
								{
									OFFSET 0.000000 0.000000 0.000000
								}
							}
						}
					}
				}
			}
		}
	}
}
MOTION
Frames: 17
Frame Time: 0.050000
-0.019711 0.958310 -0.052693 -2.096067 -18.373238 15.358426 7.863816 -0.086391 -11.244984 3.304224 -0.229227 -3.396538 1.657783 7.321873 30.141200 0.000000 0.000000 0.000000 -4.347110 1.794957 -17.314166 -6.164542 0.278971 -2.089379 10.623062 1.190502 29.182917 0.000000 0.000000 0.000000 5.111333 -0.205330 -0.467587 3.495277 -1.417734 -0.700214 -6.164445 -7.007192 -1.744240 10.319589 -8.713027 14.626152 0.000000 0.000000 0.000000 17.847712 -5.371452 0.589964 -59.895256 -28.995402 13.467215 137.162410 -52.113459 -86.398142 0.000000 0.000000 0.000000 -8.806728 -9.181924 0.042768 75.233494 28.741531 7.448433 173.270922 51.411019 164.014840 0.000000 0.000000 0.000000 
-0.020145 0.955723 -0.052303 -1.160698 -16.488226 15.028030 8.093000 -0.110764 -12.042082 2.369563 -0.176105 -2.573524 -0.767449 4.573878 28.920022 0.000000 0.000000 0.000000 -5.719202 1.622988 -16.696090 -5.310856 0.168703 -2.892965 9.557455 -0.270301 30.067841 0.000000 0.000000 0.000000 5.161491 -0.250092 -0.062141 4.124663 -1.695423 -1.582529 -7.242527 -4.935918 -0.932671 12.885152 -11.380434 11.732686 0.000000 0.000000 0.000000 13.870660 -2.654231 0.483658 -66.984154 -25.909292 12.375786 153.098082 -53.719285 -114.186200 0.000000 0.000000 0.000000 -8.206580 -10.841366 -0.883102 77.114142 25.820036 6.774144 174.168317 50.050100 168.278139 0.000000 0.000000 0.000000 
-0.019475 0.953775 -0.052572 0.773509 -10.548806 14.244503 7.066160 -0.408899 -13.745227 1.602019 -0.127552 -1.481430 -3.498009 2.057625 27.432629 0.000000 0.000000 0.000000 -8.059532 1.256223 -15.404943 -4.807328 0.285844 -1.509315 7.320063 -1.122578 28.162692 0.000000 0.000000 0.000000 5.862124 -0.277599 -0.235232 3.922887 -1.617925 -2.576894 -8.141986 -1.454322 -0.144152 18.345552 -16.057430 6.616200 0.000000 0.000000 0.000000 9.805688 -0.764177 0.656046 -69.945269 -27.606458 11.764963 156.534400 -52.810744 -123.371513 0.000000 0.000000 0.000000 -8.706615 -11.233448 -1.533084 80.413013 26.786045 10.943347 -171.146955 55.012723 -158.140447 0.000000 0.000000 0.000000 
-0.018372 0.953062 -0.053434 2.274929 -5.597064 14.218892 5.851291 -0.721302 -15.474194 0.867275 -0.078942 -0.481097 -4.423182 1.409107 25.835798 0.000000 0.000000 0.000000 -9.842304 0.975365 -14.673544 -3.834744 0.329885 -0.325750 4.316800 -3.718701 26.723641 0.000000 0.000000 0.000000 6.626312 -0.177842 -1.808332 4.426785 -1.875504 -1.824853 -9.031474 5.818304 -0.513824 22.996341 -19.924307 2.635781 0.000000 0.000000 0.000000 8.608524 2.555400 0.640234 -71.056822 -31.859384 11.360349 156.853758 -54.129037 -131.470331 0.000000 0.000000 0.000000 -11.909749 -11.209919 -2.186416 80.873158 30.362605 19.149760 -141.341378 55.942621 -103.232604 0.000000 0.000000 0.000000 
-0.017583 0.953569 -0.054154 3.195772 -1.743648 13.595805 5.057906 -0.896483 -15.320729 0.915346 -0.068955 -0.705003 -6.557209 -0.936256 24.985195 0.000000 0.000000 0.000000 -10.707498 0.742328 -13.328339 -3.365438 0.386061 0.792837 2.403568 -5.328633 25.733528 0.000000 0.000000 0.000000 7.971793 -0.175695 -2.323321 3.692364 -1.574788 -1.767806 -9.218577 11.306450 -1.352650 26.484645 -23.099336 0.908211 0.000000 0.000000 0.000000 8.729564 3.856724 1.045358 -71.077992 -37.111008 12.194076 154.616334 -52.850970 -130.003517 0.000000 0.000000 0.000000 -15.186843 -8.784850 -2.432311 81.559454 32.543642 25.507443 -123.599241 49.130844 -67.911529 0.000000 0.000000 0.000000 
-0.017136 0.955274 -0.054696 3.271292 0.179711 13.652203 4.862347 -0.963367 -15.356430 0.339548 -0.007050 -0.764440 -5.583144 0.149441 23.369601 0.000000 0.000000 0.000000 -9.651843 0.726619 -13.012746 -4.086181 0.543150 1.725179 -0.030574 -8.190331 24.359779 0.000000 0.000000 0.000000 9.307119 -0.098927 -3.462687 3.209484 -1.382435 -1.455692 -8.956551 15.796371 -2.390505 27.248057 -23.475382 -0.601367 0.000000 0.000000 0.000000 10.584167 2.594930 2.308552 -71.104420 -42.120879 13.241438 147.659837 -52.112587 -119.536900 0.000000 0.000000 0.000000 -18.461854 -7.346257 -2.919215 82.588034 34.383395 30.969519 -114.426313 42.973551 -48.337986 0.000000 0.000000 0.000000 
-0.016465 0.956466 -0.055324 3.200964 -1.517991 13.575875 4.260692 -0.910997 -13.977674 0.132949 0.063140 -2.205840 -2.798392 3.380804 22.558283 0.000000 0.000000 0.000000 -9.224427 0.811816 -13.159784 -4.463678 0.568663 1.614289 -0.286973 -8.674701 23.149082 0.000000 0.000000 0.000000 9.639111 -0.058191 -3.690192 4.031581 -1.793119 -0.672137 -9.844168 16.484942 -3.423741 26.367036 -24.431707 2.217631 0.000000 0.000000 0.000000 11.418837 2.784482 2.536272 -67.838584 -44.788193 14.124600 139.614382 -49.536424 -104.408288 0.000000 0.000000 0.000000 -18.626822 -6.286185 -2.692105 82.869285 35.946609 32.621974 -117.027737 43.496191 -51.331890 0.000000 0.000000 0.000000 
-0.014866 0.957424 -0.056355 2.143956 -6.077482 13.526792 3.780256 -0.805496 -12.703638 1.226254 -0.033942 -2.430921 1.102951 7.635575 21.494742 0.000000 0.000000 0.000000 -8.318121 1.016125 -13.626206 -5.060382 0.538382 0.821353 2.129349 -5.463522 21.570833 0.000000 0.000000 0.000000 10.602260 -0.081711 -3.215284 4.132214 -1.832776 -0.335940 -8.988113 13.267036 -3.528454 24.127227 -22.481849 3.995544 0.000000 0.000000 0.000000 11.938375 2.607259 2.084585 -65.956806 -45.738190 16.490399 137.509955 -45.750540 -94.109419 0.000000 0.000000 0.000000 -19.113357 -7.855029 -1.876050 87.246988 35.714365 31.859037 -130.598996 49.828188 -78.354550 0.000000 0.000000 0.000000 
-0.013077 0.957092 -0.058302 1.635672 -12.221759 13.490200 2.613789 -0.731446 -10.988218 2.266138 -0.095528 -3.510943 5.407326 12.573171 22.292003 0.000000 0.000000 0.000000 -7.605497 1.233090 -14.146253 -5.640168 0.511260 0.367369 3.486926 -2.859460 17.477944 0.000000 0.000000 0.000000 10.345583 -0.153285 -2.126824 4.488485 -1.939030 -0.214576 -7.957906 7.093115 -3.028641 20.496492 -18.538315 5.558277 0.000000 0.000000 0.000000 13.826405 -0.254382 1.812737 -61.224040 -46.328700 18.834087 134.024528 -40.962103 -78.175511 0.000000 0.000000 0.000000 -15.791804 -8.335917 -0.547299 85.730883 37.272394 26.266410 -154.632382 55.714029 -125.546851 0.000000 0.000000 0.000000 
-0.011761 0.957728 -0.060814 0.415537 -18.656010 14.220192 2.066593 -0.653971 -9.972663 3.692235 -0.186764 -4.519277 9.534531 17.047651 24.719090 0.000000 0.000000 0.000000 -6.951656 1.516938 -15.496906 -5.854531 0.381240 -0.695477 6.951791 2.328120 16.962939 0.000000 0.000000 0.000000 10.269221 -0.281994 -0.772618 4.576161 -1.891680 -0.901909 -6.453600 -0.563030 -3.126621 17.007586 -15.230798 10.588718 0.000000 0.000000 0.000000 16.399071 -1.762501 0.785028 -57.977767 -44.714769 20.671845 132.256047 -36.824184 -63.302085 0.000000 0.000000 0.000000 -13.127277 -9.485709 0.533692 86.942219 35.983934 18.468262 -175.900412 53.502073 -169.193859 0.000000 0.000000 0.000000 
-0.010673 0.958283 -0.064060 -0.401319 -25.919430 14.972391 1.723563 -0.578987 -9.654266 3.934775 -0.278462 -4.187074 13.703566 20.952576 28.014100 0.000000 0.000000 0.000000 -6.163984 1.875035 -17.069756 -6.982641 0.333296 -1.576405 10.661270 7.984069 16.855947 0.000000 0.000000 0.000000 8.569843 -0.435364 1.126593 4.758718 -1.887446 -3.251390 -5.343338 -6.579271 -0.910857 11.694323 -9.132230 13.609887 0.000000 0.000000 0.000000 21.323249 -2.177577 -0.946389 -60.677283 -43.839678 25.713053 128.978597 -36.066295 -51.941891 0.000000 0.000000 0.000000 -11.871448 -13.015346 0.777918 86.583353 32.574033 8.840637 171.672064 46.522582 159.792211 0.000000 0.000000 0.000000 
-0.009929 0.957547 -0.067332 -0.239518 -30.724702 15.111595 1.805419 -0.483975 -8.852470 2.290189 -0.087871 -5.059604 16.446976 23.316352 30.295787 0.000000 0.000000 0.000000 -6.428473 2.095368 -17.872851 -6.939336 0.147743 -3.298706 12.937604 10.002885 18.479489 0.000000 0.000000 0.000000 7.380073 -0.518996 2.525983 3.884656 -1.546767 -4.215453 -5.146435 -10.235576 0.040735 9.265254 -5.785215 11.953634 0.000000 0.000000 0.000000 23.805360 -2.819524 -2.170230 -69.426308 -43.012578 33.420126 127.812225 -36.476028 -48.723389 0.000000 0.000000 0.000000 -10.048338 -14.050624 0.424206 83.884278 28.538111 2.121204 166.407655 42.458487 142.122536 0.000000 0.000000 0.000000 
-0.009329 0.956341 -0.070477 -0.412567 -32.765519 16.030310 2.217011 -0.433977 -9.435587 1.608285 -0.032549 -4.893202 16.766348 23.530083 29.738513 0.000000 0.000000 0.000000 -6.613314 2.341027 -19.259484 -6.984245 0.104735 -3.766296 14.507199 11.997423 19.368637 0.000000 0.000000 0.000000 6.850003 -0.545403 2.903680 3.480898 -1.375607 -4.085312 -5.727185 -11.747134 0.279175 7.869817 -4.144846 12.047430 0.000000 0.000000 0.000000 22.009199 -1.293641 -2.721004 -79.625182 -40.163138 38.883573 136.033686 -41.390912 -65.843172 0.000000 0.000000 0.000000 -6.936335 -14.031730 -0.946241 82.091356 24.088865 -1.538352 162.288712 41.234335 129.313495 0.000000 0.000000 0.000000 
-0.008940 0.954609 -0.074699 0.389574 -32.984473 15.892957 1.938759 -0.478359 -9.793894 1.301548 -0.014073 -4.599456 15.636576 22.441423 27.917548 0.000000 0.000000 0.000000 -7.795713 2.304211 -19.061414 -6.247047 -0.014892 -5.112667 14.494866 12.089244 19.304485 0.000000 0.000000 0.000000 6.181528 -0.582367 3.672930 2.841072 -1.127619 -3.780779 -6.944299 -10.025170 0.993209 8.261864 -4.998958 11.231966 0.000000 0.000000 0.000000 18.174713 0.183380 -2.444735 -81.257700 -37.322446 35.670245 147.952158 -44.815899 -88.349635 0.000000 0.000000 0.000000 -5.779681 -14.432907 -1.779588 82.605024 22.645645 -1.739187 164.042235 40.053310 134.506218 0.000000 0.000000 0.000000 
-0.009270 0.954415 -0.079884 1.414778 -29.466143 16.084571 2.226626 -0.525560 -11.433671 1.215004 -0.032909 -3.801349 11.602731 18.039053 24.740393 0.000000 0.000000 0.000000 -9.232175 2.168174 -18.906331 -6.266948 -0.019066 -5.262839 13.703471 12.203967 18.418671 0.000000 0.000000 0.000000 6.094431 -0.608200 3.753971 2.983734 -1.209232 -4.817641 -7.976699 -6.199173 1.952254 11.775741 -8.997972 10.149619 0.000000 0.000000 0.000000 14.695197 0.494153 -1.521487 -77.433345 -37.179601 29.556985 152.793397 -44.259005 -97.419743 0.000000 0.000000 0.000000 -7.918532 -15.112938 -1.383714 85.973034 27.071863 3.776574 166.697366 43.343385 147.151808 0.000000 0.000000 0.000000 
-0.010901 0.954902 -0.084876 2.316273 -25.829716 16.204190 2.465749 -0.589230 -12.581352 1.578843 -0.077494 -3.482251 7.396374 12.969082 22.319962 0.000000 0.000000 0.000000 -10.089039 1.969364 -18.292705 -7.079049 0.032822 -5.132363 12.846460 12.926237 16.707272 0.000000 0.000000 0.000000 6.188671 -0.611753 3.372135 2.813803 -1.138170 -4.943772 -9.014914 -0.292723 2.848934 14.451648 -12.516351 8.871965 0.000000 0.000000 0.000000 13.343939 1.976918 -0.918940 -73.381337 -40.016401 25.796286 151.973955 -41.313655 -95.617886 0.000000 0.000000 0.000000 -10.639489 -16.038172 -1.416724 84.905693 32.542740 12.205850 179.083372 48.357520 -177.784195 0.000000 0.000000 0.000000 
-0.014164 0.956955 -0.088739 2.489801 -22.871844 16.571911 2.811515 -0.612309 -13.581445 2.068603 -0.118068 -3.506970 5.303050 10.497001 22.095624 0.000000 0.000000 0.000000 -9.947379 1.813381 -17.605245 -7.776532 0.080370 -5.066514 12.093339 13.131923 15.404063 0.000000 0.000000 0.000000 6.649320 -0.634024 3.073268 2.230824 -0.899846 -4.283659 -9.584214 5.055981 1.482976 18.461844 -16.869702 8.150005 0.000000 0.000000 0.000000 11.124284 1.846805 -0.059752 -71.984083 -42.341319 23.613954 147.211464 -41.655963 -92.436513 0.000000 0.000000 0.000000 -12.217290 -15.407557 -1.688942 83.435023 33.838558 17.078903 -169.723275 50.137156 -151.061635 0.000000 0.000000 0.000000 
